<?xml version="1.0" encoding="UTF-8"?>
<svg xmlns="http://www.w3.org/2000/svg" viewBox="0 0 572.18 389.51">
  <defs>
    <style>
      .cls-1 {
        font-size: 14px;
      }

      .cls-1, .cls-2, .cls-3, .cls-4 {
        isolation: isolate;
      }

      .cls-1, .cls-5 {
        font-family: Arial-BoldMT, Arial;
        font-weight: 700;
      }

      .cls-6, .cls-7, .cls-8, .cls-9, .cls-10 {
        stroke: #000;
      }

      .cls-6, .cls-7, .cls-8, .cls-10 {
        stroke-miterlimit: 10;
      }

      .cls-6, .cls-8, .cls-11, .cls-9, .cls-10 {
        fill: none;
      }

      .cls-2 {
        letter-spacing: -.06em;
      }

      .cls-2, .cls-3 {
        font-family: ArialMT, Arial;
      }

      .cls-2, .cls-3, .cls-5 {
        font-size: 12px;
      }

      .cls-8 {
        stroke-dasharray: 0 0 8.08 8.08;
      }

      .cls-12 {
        letter-spacing: -.02em;
      }

      .cls-10 {
        stroke-dasharray: 0 0 4.16 4.16;
      }
    </style>
  </defs>
  <g id="OMERO">
    <text class="cls-3" transform="translate(297.11 324.05)"><tspan x="0" y="0">OMERO Slurm Client</tspan></text>
    <text class="cls-3" transform="translate(135.59 194.17)"><tspan x="0" y="0">OMERO scripts</tspan></text>
    <text class="cls-3" transform="translate(54.66 324.05)"><tspan x="0" y="0">Images</tspan></text>
    <text class="cls-3" transform="translate(116.67 375.12)"><tspan x="0" y="0">OMERO web interface</tspan></text>
    <g>
      <path d="m102.71,300.23v-15.74c0-1.49-1.19-2.67-2.67-2.67h-15.45c-1.49,0-2.67,1.19-2.67,2.67v15.74c0,1.49,1.19,2.67,2.67,2.67h15.74c1.19,0,2.38-1.19,2.38-2.67m-14.26-5.05l2.67,3.56,3.86-4.75,5.35,6.53h-15.74m-8.02-13.37v18.12c0,1.49,1.19,2.67,2.67,2.67h18.12v-2.67h-18.12v-18.12"/>
      <path d="m69.74,295.47h0c-11.58,0-17.82-4.46-17.82-5.94v-6.53c4.75,2.38,10.99,3.56,17.82,3.56h1.78c1.19-2.38,2.67-4.46,4.46-6.24-2.08,0-4.16.3-6.24.3-7.13,0-13.96-1.78-17.82-4.46v-8.61c4.46,2.38,10.69,4.16,17.82,4.16s13.37-1.49,17.82-4.16v7.13h2.08c1.19,0,2.67,0,3.86.3v-15.15c0-6.53-10.69-11.88-23.76-11.88s-23.76,5.35-23.76,11.88v29.7c0,6.53,10.69,11.88,23.76,11.88h1.19c-.59-1.78-1.19-3.86-1.19-5.94Zm0-41.58c11.58,0,17.82,4.46,17.82,5.94s-6.24,5.94-17.82,5.94-17.82-4.46-17.82-5.94,6.24-5.94,17.82-5.94Z"/>
    </g>
    <g>
      <path d="m199.49,348.88c0-.8.27-1.6.27-2.67,0-.8,0-1.6-.27-2.67h4.27c.27.8.27,1.6.27,2.67s0,1.87-.27,2.67m-6.67,7.2c.8-1.33,1.33-2.93,1.87-4.53h3.73c-1.33,2.13-3.2,3.73-5.6,4.53m-.27-7.2h-6.13c0-.8-.27-1.6-.27-2.67,0-.8,0-1.87.27-2.67h6.13c0,.8.27,1.6.27,2.67s-.27,1.87-.27,2.67m-2.93,7.73c-1.07-1.6-1.87-3.2-2.4-5.07h4.8c-.53,1.87-1.33,3.47-2.4,5.07m-5.33-15.47h-3.73c1.33-2.13,3.2-3.73,5.6-4.53-.8,1.33-1.33,2.93-1.87,4.53m-3.73,10.4h3.73c.53,1.6,1.07,3.2,1.87,4.53-2.4-.8-4.27-2.4-5.6-4.53m-1.07-2.67c-.27-.8-.27-1.6-.27-2.67s0-1.87.27-2.67h4.27c0,.8-.27,1.6-.27,2.67,0,.8,0,1.6.27,2.67m5.87-12.8c1.07,1.6,1.87,3.2,2.4,5.07h-4.8c.27-1.87,1.33-3.47,2.4-5.07m8.8,5.07h-3.73c-.53-1.6-1.07-3.2-1.87-4.53,2.4.8,4.27,2.4,5.6,4.53m-8.8-7.73c-7.2,0-12.8,5.87-12.8,12.8s5.87,12.8,12.8,12.8,12.8-5.87,12.8-12.8-5.87-12.8-12.8-12.8Z"/>
      <path d="m176.29,349.95h-24.27v-37.33h48v17.07c1.87.8,3.73,1.6,5.33,2.93v-25.33c0-2.93-2.4-5.33-5.33-5.33h-48c-2.93,0-5.33,2.4-5.33,5.33v42.67c0,2.93,2.4,5.33,5.33,5.33h26.4c-1.07-1.6-1.6-3.47-2.13-5.33Z"/>
    </g>
    <path d="m380.6,265.41c2.25,2.25,2.25,5.92,0,7.89l-7.89,7.89-21.97-21.97,7.89-7.89c2.25-2.25,5.92-2.25,7.89,0l5.07,5.07,8.45-8.45,3.94,3.94-8.45,8.45,5.07,5.07m-16.34,16.34l-3.94-3.94-7.89,7.89-5.92-5.92,7.89-7.89-3.94-3.94-7.89,7.89-4.23-3.94-7.89,7.89c-2.25,2.25-2.25,5.92,0,7.89l5.07,5.07-11.27,11.27,3.94,3.94,11.27-11.27,5.07,5.07c2.25,2.25,5.92,2.25,7.89,0l7.89-7.89-3.94-3.94,7.89-8.17Z"/>
    <line class="cls-9" x1="176.02" y1="292.36" x2="176.02" y2="274.68"/>
    <text class="cls-5" transform="translate(10.6 194.17)"><tspan x="0" y="0">OMERO</tspan></text>
    <rect class="cls-6" x=".6" y="173.87" width="455.83" height="215.14" rx="6.74" ry="6.74"/>
    <g id="GitHub">
      <path d="m182.48,203.87h-24.46c-3.34,0-6,2.7-6,6v47.98c0,3.32,2.7,6.02,6.02,6.02h35.95c3.32,0,6.02-2.7,6.02-6.02v-35.98l-18-18m11.54,53.54h-36v-48h21.23v14.77h14.77v33.23m-22.82-19.73v15.84l13.2-7.92-13.2-7.92Z"/>
    </g>
  </g>
  <g id="Workflows">
    <text class="cls-3" transform="translate(287.76 50.8)"><tspan x="0" y="0">Docker container images</tspan></text>
    <rect class="cls-11" x="434.9" y="79.12" width="60" height="30" pointer-events="all"/>
    <rect class="cls-11" x="274.9" y="79.12" width="60" height="30" pointer-events="all"/>
    <rect class="cls-11" x="351.9" y="31.87" width="60" height="30" pointer-events="all"/>
    <path d="m383.55,76.76c-.18-.12-1.68-1.29-4.92-1.29-.84,0-1.68.09-2.52.24-.63-4.2-4.14-6.33-4.29-6.42l-.87-.51-.54.81c-.72,1.08-1.29,2.31-1.53,3.57-.6,2.4-.24,4.68.99,6.63-1.47.84-3.87,1.05-4.38,1.05h-39.51c-1.02,0-1.86.84-1.86,1.89,0,3.45.54,6.9,1.74,10.14,1.35,3.57,3.39,6.21,6,7.83,2.94,1.8,7.77,2.82,13.26,2.82,2.37,0,4.83-.21,7.26-.66,3.36-.6,6.6-1.77,9.57-3.48,2.46-1.41,4.65-3.21,6.51-5.37,3.15-3.51,5.01-7.5,6.36-10.95h.57c3.42,0,5.55-1.38,6.72-2.55.78-.72,1.35-1.59,1.77-2.61l.24-.72-.57-.42m-53.88,2.97h5.28c.24,0,.48-.21.48-.48v-4.74c0-.24-.21-.48-.48-.48h-5.28c-.27,0-.48.21-.48.48v4.74c.03.27.21.48.48.48m7.29,0h5.28c.24,0,.48-.21.48-.48v-4.74c0-.24-.21-.48-.48-.48h-5.28c-.27,0-.48.21-.48.48v4.74c.03.27.21.48.48.48m7.41,0h5.25c.3,0,.51-.21.51-.48v-4.74c0-.24-.18-.48-.51-.48h-5.25c-.24,0-.45.21-.45.48v4.74c0,.27.18.48.45.48m7.32,0h5.31c.24,0,.45-.21.45-.48v-4.74c0-.24-.18-.48-.45-.48h-5.31c-.24,0-.45.21-.45.48v4.74c0,.27.21.48.45.48m-14.73-6.72h5.28c.24,0,.48-.27.48-.54v-4.71c0-.27-.21-.48-.48-.48h-5.28c-.27,0-.48.18-.48.48v4.71c.03.27.21.54.48.54m7.41,0h5.25c.3,0,.51-.27.51-.54v-4.71c0-.27-.18-.48-.51-.48h-5.25c-.24,0-.45.18-.45.48v4.71c0,.27.18.54.45.54m7.32,0h5.31c.24,0,.45-.27.45-.54v-4.71c0-.27-.21-.48-.45-.48h-5.31c-.24,0-.45.18-.45.48v4.71c0,.27.21.54.45.54m0-6.84h5.31c.24,0,.45-.21.45-.48v-4.68c0-.3-.21-.51-.45-.51h-5.31c-.24,0-.45.18-.45.51v4.68c0,.24.21.48.45.48m7.38,13.56h5.28c.27,0,.48-.21.48-.48v-4.74c0-.24-.21-.48-.48-.48h-5.28c-.24,0-.45.21-.45.48v4.74c0,.27.21.48.45.48"/>
    <rect class="cls-6" x="238.83" y=".5" width="216.99" height="163.02" rx="6.74" ry="6.74"/>
    <text class="cls-5" transform="translate(248.83 20.79)"><tspan class="cls-12" x="0" y="0">W</tspan><tspan x="11.11" y="0">orkflows</tspan></text>
  </g>
  <g id="Compute">
    <text class="cls-3" transform="translate(493.22 50.8)"><tspan x="0" y="0">HPC Local</tspan></text>
    <text class="cls-3" transform="translate(491.89 375.12)"><tspan x="0" y="0">HPC Cloud</tspan></text>
    <path d="m520.77,345.89c0,.89.08,1.76.21,2.62h-14.64c-3.94,0-7.37-1.31-10.21-4.12-2.81-2.76-4.23-6.14-4.23-10.1,0-3.41,1.02-6.46,3.07-9.13,2.05-2.68,4.8-4.38,8.08-5.12,1.1-4.02,3.28-7.27,6.56-9.76,3.28-2.49,7.01-3.75,11.15-3.75,5.12,0,9.45,1.78,13.02,5.35,3.57,3.57,5.35,7.9,5.35,13.02,3.02.34,5.51,1.65,7.51,3.94.16.13.26.34.37.5-2.36-1.15-5.04-1.81-7.87-1.81-10.16,0-18.37,8.21-18.37,18.37m31.05,4.3l-2.62,4.54c-.18.34-.52.34-.87.34l-3.23-1.31c-.71.47-1.42.89-2.2,1.23l-.5,3.46c-.05.31-.34.55-.63.55h-5.25c-.37,0-.63-.24-.68-.55l-.5-3.46c-.81-.31-1.55-.76-2.23-1.23l-3.25,1.31c-.31,0-.66,0-.81-.34l-2.62-4.54c-.16-.29-.08-.63.16-.84l2.78-2.15c-.05-.45-.08-.87-.08-1.31s.03-.87.08-1.31l-2.78-2.15c-.26-.21-.31-.55-.16-.84l2.62-4.54c.18-.34.52-.34.81-.34l3.25,1.31c.68-.47,1.44-.89,2.23-1.23l.5-3.46c.05-.31.34-.55.68-.55h5.25c.29,0,.58.24.6.55l.5,3.46c.81.31,1.52.76,2.23,1.23l3.23-1.31c.34,0,.68,0,.84.34l2.62,4.54c.16.29.08.63-.16.84l-2.78,2.15c.08.45.1.87.1,1.31s-.05.87-.1,1.31l2.81,2.15c.24.21.31.55.16.84m-8.74-4.3c0-2.18-1.78-3.94-3.94-3.94s-3.94,1.76-3.94,3.94,1.73,3.94,3.94,3.94,3.94-1.76,3.94-3.94Z"/>
    <path d="m500.08,60.5h43.64c1.51,0,2.73,1.22,2.73,2.73v10.91c0,1.51-1.22,2.73-2.73,2.73h-43.64c-1.51,0-2.73-1.22-2.73-2.73v-10.91c0-1.51,1.22-2.73,2.73-2.73m0,21.82h43.64c1.51,0,2.73,1.22,2.73,2.73v10.91c0,1.51-1.22,2.73-2.73,2.73h-43.64c-1.51,0-2.73-1.22-2.73-2.73v-10.91c0-1.51,1.22-2.73,2.73-2.73m0,21.82h43.64c1.51,0,2.73,1.22,2.73,2.73v10.91c0,1.51-1.22,2.73-2.73,2.73h-43.64c-1.51,0-2.73-1.22-2.73-2.73v-10.91c0-1.51,1.22-2.73,2.73-2.73m13.64-32.73h2.73v-5.45h-2.73v5.45m0,21.82h2.73v-5.45h-2.73v5.45m0,21.82h2.73v-5.45h-2.73v5.45m-10.91-49.09v5.45h5.45v-5.45h-5.45m0,21.82v5.45h5.45v-5.45h-5.45m0,21.82v5.45h5.45v-5.45h-5.45Z"/>
    <text class="cls-5" transform="translate(477.18 20.8)"><tspan x="0" y="0">Compute</tspan></text>
    <rect class="cls-6" x="467.18" y=".5" width="104.5" height="388.51" rx="6.74" ry="6.74"/>
  </g>
  <g id="Connections">
    <path class="cls-6" d="m74.34,129.72v108.69" pointer-events="stroke"/>
    <path class="cls-7" d="m74.34,238.41l-3.5-7,3.5,1.75,3.5-1.75-3.5,7Z" pointer-events="all"/>
    <path class="cls-6" d="m213.5,233.87h58.56v30" pointer-events="stroke"/>
    <path class="cls-7" d="m326.88,263.68l-7,3.5,1.75-3.5-1.75-3.5,7,3.5Z" pointer-events="all"/>
    <path class="cls-6" d="m272.06,298.33v30.28h-52.19" pointer-events="stroke"/>
    <path class="cls-7" d="m214.62,328.7l7-3.5-1.75,3.5,1.75,3.5-7-3.5Z" pointer-events="all"/>
    <g class="cls-4">
      <path d="m255.65,318.61v-8.59h6.21v1.01h-5.07v2.63h4.75v1.01h-4.75v2.92h5.27v1.01h-6.41Z"/>
    </g>
    <text class="cls-2" transform="translate(159.38 286.72)"><tspan x="0" y="0">A</tspan></text>
    <path class="cls-6" d="m524.85,135.65v97.77h-172.95v-113.76" pointer-events="stroke"/>
    <g pointer-events="stroke">
      <g>
        <line class="cls-6" x1="427.99" y1="274.71" x2="431.99" y2="274.71"/>
        <line class="cls-8" x1="440.07" y1="274.71" x2="516.81" y2="274.71"/>
        <polyline class="cls-6" points="520.85 274.71 524.85 274.71 524.85 278.71"/>
        <line class="cls-10" x1="524.85" y1="282.86" x2="524.85" y2="289.1"/>
        <line class="cls-6" x1="524.85" y1="291.17" x2="524.85" y2="295.17"/>
      </g>
    </g>
    <path class="cls-6" d="m395.84,274.71h129.01v-139.06" pointer-events="stroke"/>
    <path class="cls-7" d="m524.85,297.17l-3.5-7,3.5,1.75,3.5-1.75-3.5,7Z" pointer-events="all"/>
    <path class="cls-7" d="m524.85,131.62l3.5,7-3.5-1.75-3.5,1.75,3.5-7Z" pointer-events="all"/>
    <path class="cls-7" d="m392.34,274.71l7-3.5-1.75,3.5,1.75,3.5-7-3.5Z" pointer-events="all"/>
    <g class="cls-4">
      <path d="m441.03,220.26l1.14.29c-.24.93-.67,1.65-1.29,2.14s-1.38.74-2.27.74-1.68-.19-2.26-.57-1.02-.92-1.32-1.64-.45-1.48-.45-2.3c0-.89.17-1.67.51-2.34s.83-1.17,1.46-1.52,1.33-.52,2.08-.52c.86,0,1.58.22,2.17.66s.99,1.05,1.22,1.85l-1.12.26c-.2-.62-.49-1.08-.87-1.37s-.86-.43-1.43-.43c-.66,0-1.21.16-1.66.47s-.75.74-.93,1.27-.27,1.08-.27,1.65c0,.73.11,1.37.32,1.91s.54.95.99,1.22.94.4,1.46.4c.64,0,1.18-.18,1.62-.55s.74-.91.9-1.63Z"/>
    </g>
    <g class="cls-4">
      <path d="m255.58,252.46v-8.59h3.22c.66,0,1.18.09,1.58.26s.71.44.93.8.34.74.34,1.13c0,.37-.1.71-.3,1.04s-.5.59-.9.79c.52.15.92.41,1.2.78s.42.8.42,1.3c0,.4-.08.78-.25,1.12s-.38.61-.63.8-.56.33-.94.42-.84.14-1.39.14h-3.28Zm1.14-4.98h1.86c.5,0,.87-.03,1.08-.1.29-.09.51-.23.65-.43s.22-.45.22-.75c0-.29-.07-.54-.21-.75s-.33-.37-.59-.45-.69-.12-1.31-.12h-1.72v2.6Zm0,3.97h2.14c.37,0,.62-.01.77-.04.26-.05.48-.12.66-.23s.32-.27.43-.48.17-.45.17-.72c0-.32-.08-.6-.25-.83s-.39-.4-.68-.5-.71-.14-1.26-.14h-1.99v2.95Z"/>
    </g>
    <line class="cls-6" x1="272.06" y1="263.71" x2="324.26" y2="263.71"/>
    <line class="cls-6" x1="272.05" y1="297.86" x2="324.26" y2="297.86"/>
    <path class="cls-7" d="m176.02,274.43l3.5,7-3.5-1.75-3.5,1.75,3.5-7Z" pointer-events="all"/>
    <g class="cls-4">
      <path d="m434.82,264.71v-8.59h2.96c.67,0,1.18.04,1.53.12.49.11.91.32,1.26.62.45.38.79.87,1.02,1.47s.34,1.28.34,2.04c0,.65-.08,1.23-.23,1.73s-.35.92-.59,1.25-.5.59-.78.78-.62.33-1.03.43-.86.15-1.38.15h-3.1Zm1.14-1.01h1.83c.57,0,1.01-.05,1.33-.16s.58-.25.77-.45c.27-.27.48-.63.63-1.09s.23-1.01.23-1.66c0-.9-.15-1.59-.44-2.07s-.65-.81-1.08-.97c-.3-.12-.79-.18-1.47-.18h-1.8v6.56Z"/>
    </g>
  </g>
  <g id="External">
    <text class="cls-3" transform="translate(45.33 50.8)"><tspan x="0" y="0">Acquisition</tspan></text>
    <text class="cls-1" transform="translate(0 21.13)"><tspan x="0" y="0">BIOMERO</tspan></text>
    <g>
      <path id="path2991" d="m77.19,85.04c-2.64-1.41-3.7-4.63-2.34-7.16,1.41-2.64,4.63-3.7,7.16-2.34,2.64,1.41,3.7,4.63,2.34,7.16-1.41,2.64-4.63,3.7-7.16,2.34Z"/>
      <path id="path2989" d="m53.07,120.32c-.1-.1-.18-1.22-.18-2.49,0-2.72.64-4.32,2.11-5.3.9-.6,1.01-.6,10.11-.6h9.2v-6.43h2.56c2.36,0,2.61-.05,3.21-.66.61-.61.66-.86.66-3.19v-2.53l.79-.17c.43-.1,1.21-.64,1.73-1.22,1.89-2.09,2.3-6.01.92-8.8l-.69-1.4,1.4-1.4c2.32-2.32,2.94-5.66,1.57-8.43-.31-.62-.5-1.12-.42-1.12s.83.42,1.67.94c3.4,2.06,6.25,6.04,7.41,10.32.64,2.34.64,7.25,0,9.63-1.04,3.91-3.72,7.82-6.8,9.94l-1.15.79v3.72h2.57c2.98,0,4.04.37,5.14,1.82.66.87.73,1.18.81,3.84l.09,2.9h-21.27c-11.7,0-21.35-.08-21.45-.18h0Zm4.11-19.1v-2.14h21.42v4.28h-21.42v-2.14Zm7.55-7.57l-1.13-1.15v-6.43l-1.07-1.05-1.07-1.05v-12.9l1.07-1.05c1.07-1.04,1.07-1.05,1.07-3.13s-.02-2.09-.65-2.09c-1.04,0-1.49-.67-1.49-2.24,0-.77.14-1.54.32-1.72.46-.46,11.75-.46,12.21,0,.18.18.32,1.02.32,1.86,0,1.64-.35,2.1-1.59,2.1-.51,0-.55.16-.55,2.09,0,2.08,0,2.09,1.07,3.13l1.07,1.05v2.24c0,1.97-.08,2.34-.66,3.11-1.51,1.98-1.87,4.74-.95,7.18.53,1.39.53,1.4,0,1.96-.47.5-.53.94-.53,3.77v3.21l-1.15,1.13c-1.14,1.12-1.16,1.13-3.16,1.13h-2.01l-1.13-1.15Z"/>
    </g>
  </g>
</svg>